<?xml version="1.0" standalone="no"?>
<!DOCTYPE svg PUBLIC "-//W3C//DTD SVG 20010904//EN"
 "http://www.w3.org/TR/2001/REC-SVG-20010904/DTD/svg10.dtd">
<svg version="1.0" xmlns="http://www.w3.org/2000/svg"
 width="220.000000pt" height="220.000000pt" viewBox="0 0 220.000000 220.000000"
 preserveAspectRatio="xMidYMid meet">
<metadata>
Created by potrace 1.11, written by Peter Selinger 2001-2013
</metadata>
<g transform="translate(0.000000,220.000000) scale(0.100000,-0.100000)"
fill="#000000" stroke="none">
<path d="M900 2130 c-106 -21 -170 -42 -262 -87 -297 -144 -515 -433 -572
-758 -14 -79 -15 -302 -2 -355 3 -14 9 -38 12 -55 10 -56 55 -177 91 -249 148
-286 404 -477 742 -552 58 -13 297 -12 366 1 102 20 200 52 280 93 304 152
508 426 570 762 18 96 13 311 -9 403 -63 262 -218 489 -432 634 -104 71 -262
140 -359 157 -17 3 -52 10 -80 15 -75 14 -249 10 -345 -9z"/>
</g>
</svg>
