<svg id="svg" version="1.1" width="400" height="400" xmlns="http://www.w3.org/2000/svg" xmlns:xlink="http://www.w3.org/1999/xlink" style="display: block;"><g id="svgg"><path id="path0" d="M390.493 178.000 C 390.493 178.770,390.575 179.085,390.676 178.700 C 390.776 178.315,390.776 177.685,390.676 177.300 C 390.575 176.915,390.493 177.230,390.493 178.000 M390.493 220.000 C 390.493 220.770,390.575 221.085,390.676 220.700 C 390.776 220.315,390.776 219.685,390.676 219.300 C 390.575 218.915,390.493 219.230,390.493 220.000 M177.300 390.676 C 177.685 390.776,178.315 390.776,178.700 390.676 C 179.085 390.575,178.770 390.493,178.000 390.493 C 177.230 390.493,176.915 390.575,177.300 390.676 M219.300 390.676 C 219.685 390.776,220.315 390.776,220.700 390.676 C 221.085 390.575,220.770 390.493,220.000 390.493 C 219.230 390.493,218.915 390.575,219.300 390.676 " stroke="none" fill="#000000" fill-rule="evenodd"></path><path id="path1" d="M178.700 7.882 C 179.195 7.978,180.005 7.978,180.500 7.882 C 180.995 7.787,180.590 7.709,179.600 7.709 C 178.610 7.709,178.205 7.787,178.700 7.882 M217.900 7.882 C 218.395 7.978,219.205 7.978,219.700 7.882 C 220.195 7.787,219.790 7.709,218.800 7.709 C 217.810 7.709,217.405 7.787,217.900 7.882 M361.970 97.347 C 363.052 98.523,363.266 98.638,362.980 97.891 C 362.872 97.612,362.383 97.138,361.892 96.839 C 361.041 96.320,361.045 96.344,361.970 97.347 M388.493 167.600 C 388.493 168.370,388.575 168.685,388.676 168.300 C 388.776 167.915,388.776 167.285,388.676 166.900 C 388.575 166.515,388.493 166.830,388.493 167.600 M7.709 179.600 C 7.709 180.590,7.787 180.995,7.882 180.500 C 7.978 180.005,7.978 179.195,7.882 178.700 C 7.787 178.205,7.709 178.610,7.709 179.600 M390.576 199.200 C 390.576 205.470,390.632 208.035,390.699 204.900 C 390.767 201.765,390.767 196.635,390.699 193.500 C 390.632 190.365,390.576 192.930,390.576 199.200 M7.709 218.800 C 7.709 219.790,7.787 220.195,7.882 219.700 C 7.978 219.205,7.978 218.395,7.882 217.900 C 7.787 217.405,7.709 217.810,7.709 218.800 M385.430 245.567 C 385.028 246.011,384.810 246.727,384.913 247.267 L 385.091 248.200 385.146 247.231 C 385.175 246.699,385.498 245.934,385.862 245.531 C 386.226 245.129,386.434 244.800,386.324 244.800 C 386.214 244.800,385.812 245.145,385.430 245.567 M352.501 314.203 C 352.666 314.386,352.502 314.866,352.137 315.270 C 351.771 315.674,351.545 316.076,351.636 316.163 C 351.726 316.250,352.115 315.900,352.501 315.385 C 353.038 314.666,353.084 314.381,352.701 314.160 C 352.425 314.001,352.335 314.021,352.501 314.203 M230.100 388.676 C 230.485 388.776,231.115 388.776,231.500 388.676 C 231.885 388.575,231.570 388.493,230.800 388.493 C 230.030 388.493,229.715 388.575,230.100 388.676 M193.500 390.699 C 196.635 390.767,201.765 390.767,204.900 390.699 C 208.035 390.632,205.470 390.576,199.200 390.576 C 192.930 390.576,190.365 390.632,193.500 390.699 " stroke="none" fill="#808080" fill-rule="evenodd"></path><path id="path2" d="M192.200 76.826 C 191.540 77.015,189.560 77.551,187.801 78.018 C 186.041 78.485,184.421 79.008,184.201 79.181 C 183.980 79.354,183.080 79.724,182.200 80.004 C 180.868 80.426,176.522 82.475,171.281 85.152 C 163.115 89.321,145.961 103.131,135.382 114.052 C 129.246 120.386,119.576 131.407,116.800 135.229 C 116.030 136.289,114.050 138.918,112.400 141.071 C 108.378 146.319,107.692 147.261,107.209 148.200 C 106.982 148.640,106.171 149.810,105.407 150.800 C 104.643 151.790,102.889 154.537,101.509 156.904 C 100.129 159.270,98.596 161.880,98.103 162.704 C 97.609 163.527,96.922 164.830,96.575 165.600 C 96.228 166.370,95.262 168.440,94.429 170.200 C 91.914 175.513,91.216 177.155,90.815 178.712 C 90.604 179.530,90.079 181.280,89.649 182.600 C 82.090 205.773,86.644 225.817,101.614 235.266 C 107.046 238.695,119.166 240.531,126.716 239.069 C 128.412 238.740,130.520 238.357,131.400 238.217 C 142.235 236.490,160.087 226.022,174.767 212.785 C 177.498 210.322,179.986 208.103,180.295 207.854 C 180.604 207.604,181.204 207.085,181.629 206.700 C 182.777 205.658,183.200 205.843,183.200 207.386 C 183.200 209.744,185.756 210.076,189.200 208.166 C 189.750 207.861,190.965 207.338,191.900 207.005 C 192.835 206.672,194.365 206.129,195.300 205.797 C 196.235 205.465,197.344 204.996,197.765 204.753 C 198.185 204.511,199.445 203.984,200.565 203.582 C 201.684 203.181,203.860 202.380,205.400 201.804 C 211.233 199.619,221.640 196.407,222.898 196.402 C 223.283 196.401,224.633 196.049,225.898 195.620 C 227.164 195.191,229.561 194.658,231.225 194.435 C 232.889 194.211,235.311 193.752,236.609 193.414 C 239.390 192.690,248.201 192.555,248.618 193.230 C 248.764 193.466,248.505 194.062,248.042 194.555 C 247.579 195.048,247.200 195.567,247.200 195.708 C 247.200 196.003,245.535 198.614,244.592 199.800 C 244.241 200.240,243.200 201.752,242.277 203.160 C 241.355 204.567,240.330 206.116,240.000 206.600 C 239.670 207.084,239.053 208.003,238.629 208.640 C 237.284 210.665,233.423 216.456,232.800 217.386 C 231.257 219.687,230.324 221.090,225.743 228.000 C 219.171 237.912,219.594 237.468,216.030 238.205 C 214.396 238.542,212.866 238.977,212.630 239.170 C 212.393 239.364,211.395 239.737,210.411 240.000 C 202.039 242.239,193.500 249.095,192.339 254.508 C 191.509 258.379,195.209 265.600,198.023 265.600 C 198.319 265.600,199.140 266.160,199.846 266.844 L 201.129 268.088 198.823 272.544 C 197.554 274.995,195.835 278.260,195.001 279.800 C 192.013 285.320,191.147 287.041,189.964 289.800 C 189.304 291.340,188.525 293.050,188.233 293.600 C 187.942 294.150,187.477 295.320,187.199 296.200 C 186.922 297.080,186.550 297.986,186.372 298.212 C 185.591 299.205,183.947 306.592,184.203 307.956 C 185.505 314.898,190.517 314.568,195.429 307.217 C 196.391 305.778,198.578 302.524,200.289 299.986 C 205.220 292.674,205.926 290.664,204.728 287.351 C 204.241 286.004,205.147 283.838,209.269 276.503 C 209.857 275.456,210.599 274.060,210.917 273.400 C 212.355 270.423,212.703 270.323,220.244 270.725 C 228.232 271.151,240.180 270.726,244.400 269.867 C 246.050 269.531,248.390 269.131,249.600 268.978 C 250.810 268.826,252.250 268.528,252.800 268.317 C 253.350 268.106,255.240 267.603,257.000 267.198 C 260.624 266.366,262.887 265.635,267.200 263.906 C 268.850 263.244,271.010 262.377,272.000 261.980 C 273.576 261.347,275.940 260.123,279.673 258.008 C 287.655 253.485,299.633 242.175,302.134 236.800 C 302.287 236.470,302.938 235.390,303.580 234.400 C 311.620 222.003,313.683 201.619,308.147 189.291 C 307.626 188.131,307.196 186.961,307.192 186.691 C 307.188 186.421,306.188 184.857,304.970 183.215 C 298.250 174.155,290.290 170.180,273.600 167.547 C 267.486 166.582,247.625 167.194,240.200 168.576 C 238.440 168.904,236.273 169.178,235.384 169.186 C 234.495 169.194,232.695 169.490,231.384 169.845 C 230.073 170.199,227.920 170.717,226.600 170.996 C 221.626 172.046,215.171 173.775,210.000 175.443 C 208.350 175.975,205.177 176.965,202.948 177.643 C 198.501 178.997,198.768 178.768,195.106 184.343 C 192.255 188.683,178.457 200.673,169.994 206.165 C 169.008 206.805,167.480 207.815,166.600 208.408 C 164.588 209.765,159.575 212.800,159.347 212.800 C 159.253 212.800,157.941 213.499,156.433 214.354 C 154.925 215.209,152.995 216.132,152.145 216.406 C 151.295 216.680,150.420 217.032,150.200 217.189 C 149.714 217.535,143.185 219.685,139.600 220.679 C 135.847 221.720,126.507 221.706,123.986 220.656 C 119.957 218.979,118.337 218.033,116.456 216.264 C 112.621 212.656,111.000 208.371,109.775 198.600 C 109.293 194.754,111.833 181.071,113.727 177.312 C 114.036 176.700,114.414 175.674,114.569 175.030 C 114.865 173.801,120.154 162.944,121.795 160.200 C 122.321 159.320,123.138 157.844,123.610 156.920 C 124.082 155.997,124.723 155.030,125.034 154.771 C 125.346 154.513,125.600 154.144,125.600 153.951 C 125.600 153.062,132.744 142.617,137.200 136.992 C 138.630 135.187,140.340 133.017,141.000 132.169 C 142.144 130.701,144.370 128.026,144.802 127.600 C 144.914 127.490,145.991 126.230,147.197 124.800 C 152.297 118.750,161.560 109.308,166.400 105.225 C 168.050 103.833,170.303 101.927,171.406 100.988 C 172.509 100.049,174.399 98.554,175.606 97.666 C 176.813 96.777,178.533 95.502,179.429 94.833 C 186.023 89.906,193.328 87.156,196.558 88.384 C 200.457 89.867,200.332 98.127,196.306 105.000 C 195.533 106.320,194.770 107.824,194.610 108.341 C 194.450 108.859,193.933 109.870,193.460 110.587 C 192.987 111.305,191.790 113.177,190.800 114.747 C 182.319 128.200,167.210 144.337,168.561 138.500 C 170.052 132.061,168.081 132.849,158.571 142.496 C 141.879 159.429,137.738 169.855,145.591 175.180 C 150.156 178.276,157.063 175.264,169.400 164.795 C 176.810 158.508,191.382 142.594,196.501 135.200 C 198.212 132.729,200.782 128.807,204.684 122.713 C 205.902 120.810,207.986 116.686,209.593 113.000 C 214.719 101.239,214.108 86.676,208.239 80.713 C 204.465 76.880,197.719 75.245,192.200 76.826 M276.821 192.816 C 296.444 194.360,304.652 203.233,298.822 216.600 C 297.249 220.208,295.839 222.971,294.638 224.800 C 293.166 227.041,282.946 237.192,281.365 237.983 C 280.724 238.303,279.930 238.782,279.600 239.046 C 278.649 239.807,271.217 243.600,270.677 243.600 C 270.408 243.600,269.561 243.932,268.794 244.339 C 268.027 244.745,266.860 245.203,266.200 245.357 C 265.540 245.511,264.100 245.975,263.000 246.387 C 252.905 250.170,225.600 251.354,225.600 248.010 C 225.600 247.590,225.764 247.146,225.965 247.022 C 226.166 246.898,227.089 245.402,228.018 243.698 C 228.946 241.994,229.747 240.550,229.798 240.488 C 230.078 240.149,237.155 238.438,239.291 238.193 C 242.367 237.840,246.542 236.593,247.166 235.841 C 247.993 234.844,246.563 233.889,244.636 234.151 C 243.205 234.345,236.685 234.546,235.300 234.439 C 234.557 234.381,234.710 233.137,235.600 232.000 C 236.030 231.450,236.386 230.797,236.391 230.549 C 236.396 230.301,236.664 229.879,236.987 229.611 C 237.310 229.343,238.243 227.926,239.061 226.462 C 239.879 224.998,241.234 222.810,242.073 221.600 C 242.912 220.390,243.599 219.197,243.599 218.949 C 243.600 218.701,243.848 218.292,244.151 218.041 C 244.454 217.790,245.534 216.193,246.551 214.492 C 247.569 212.791,248.626 211.051,248.901 210.623 C 253.647 203.242,255.991 197.998,255.997 194.749 C 256.003 191.899,260.209 191.509,276.821 192.816 " stroke="none" fill="#ffffff" fill-rule="evenodd"></path><path id="path3" d="M181.993 7.741 C 181.883 7.850,180.175 7.984,178.197 8.039 C 174.546 8.141,172.400 8.585,172.400 9.239 C 172.400 9.438,170.645 9.601,168.500 9.602 C 164.416 9.605,161.684 10.115,161.370 10.934 C 161.255 11.232,160.147 11.458,158.492 11.520 C 155.307 11.640,153.488 11.963,153.168 12.464 C 153.040 12.665,152.230 12.922,151.368 13.036 C 147.729 13.517,147.163 13.672,146.498 14.371 C 146.012 14.882,145.033 15.158,143.268 15.280 C 141.876 15.377,140.616 15.636,140.468 15.857 C 140.128 16.366,139.056 16.764,137.249 17.051 C 136.468 17.175,135.393 17.619,134.860 18.038 C 134.328 18.457,133.421 18.802,132.846 18.805 C 131.184 18.814,130.000 19.247,130.000 19.847 C 130.000 20.183,129.571 20.400,128.906 20.400 C 128.304 20.400,126.909 20.836,125.806 21.370 C 124.703 21.903,123.318 22.443,122.728 22.570 C 122.138 22.697,121.384 23.073,121.051 23.406 C 120.719 23.739,119.905 24.119,119.244 24.251 C 118.582 24.384,117.734 24.831,117.358 25.246 C 116.983 25.661,116.335 26.000,115.918 26.000 C 114.734 26.000,112.737 27.174,113.053 27.685 C 113.234 27.979,113.103 28.049,112.678 27.885 C 112.319 27.748,111.919 27.807,111.789 28.017 C 111.659 28.228,111.223 28.400,110.819 28.400 C 110.416 28.400,109.989 28.652,109.871 28.960 C 109.752 29.268,108.941 29.641,108.067 29.789 C 106.996 29.970,106.415 30.300,106.284 30.802 C 106.158 31.281,105.570 31.644,104.639 31.819 C 103.841 31.969,103.056 32.309,102.894 32.576 C 102.583 33.088,101.206 33.771,100.700 33.664 C 100.535 33.629,100.400 33.789,100.400 34.020 C 100.400 34.252,99.766 34.706,98.991 35.030 C 98.216 35.353,97.226 35.974,96.791 36.409 C 96.356 36.844,95.642 37.200,95.203 37.200 C 94.765 37.200,94.182 37.560,93.907 38.000 C 93.632 38.440,93.213 38.800,92.976 38.800 C 92.739 38.800,92.153 39.250,91.675 39.800 C 91.197 40.350,90.515 40.800,90.160 40.800 C 89.602 40.800,88.816 41.320,86.491 43.230 C 86.211 43.460,86.090 43.822,86.221 44.034 C 86.352 44.246,86.311 44.394,86.130 44.363 C 85.371 44.231,84.863 44.453,83.762 45.400 C 83.123 45.949,82.439 46.399,82.242 46.400 C 82.045 46.400,81.505 46.765,81.042 47.211 C 77.635 50.493,76.369 51.600,76.027 51.600 C 75.810 51.600,75.173 52.095,74.612 52.700 C 74.051 53.305,73.459 53.803,73.296 53.806 C 73.133 53.809,72.531 54.259,71.957 54.806 C 71.384 55.353,70.433 56.160,69.845 56.600 C 69.257 57.040,68.606 57.805,68.398 58.300 C 68.183 58.812,67.671 59.200,67.210 59.200 C 66.764 59.200,66.400 59.380,66.400 59.600 C 66.400 59.820,64.960 61.440,63.200 63.200 C 61.440 64.960,59.820 66.400,59.600 66.400 C 59.380 66.400,59.200 66.766,59.200 67.213 C 59.200 67.659,58.885 68.144,58.500 68.289 C 57.601 68.629,55.600 70.610,55.600 71.160 C 55.600 71.392,55.150 71.876,54.600 72.237 C 54.050 72.597,53.600 73.109,53.600 73.374 C 53.600 73.639,53.150 74.247,52.600 74.725 C 52.050 75.203,51.600 75.781,51.600 76.008 C 51.600 76.367,50.515 77.612,47.211 81.042 C 46.765 81.505,46.400 82.045,46.400 82.242 C 46.399 82.439,45.949 83.123,45.400 83.762 C 44.453 84.863,44.231 85.371,44.363 86.130 C 44.394 86.311,44.246 86.352,44.034 86.221 C 43.822 86.090,43.460 86.211,43.230 86.491 C 41.320 88.816,40.800 89.602,40.800 90.160 C 40.800 90.515,40.350 91.197,39.800 91.675 C 39.250 92.153,38.800 92.739,38.800 92.976 C 38.800 93.213,38.440 93.632,38.000 93.907 C 37.560 94.182,37.200 94.751,37.200 95.173 C 37.200 95.594,36.788 96.447,36.284 97.069 C 35.781 97.691,35.155 98.695,34.893 99.300 C 34.631 99.905,34.248 100.400,34.040 100.400 C 33.833 100.400,33.548 100.925,33.407 101.567 C 33.266 102.208,32.902 102.829,32.598 102.946 C 32.293 103.062,31.923 103.802,31.776 104.590 C 31.628 105.377,31.176 106.199,30.771 106.416 C 30.366 106.632,29.914 107.452,29.767 108.237 C 29.619 109.022,29.252 109.759,28.949 109.875 C 28.647 109.991,28.400 110.416,28.400 110.819 C 28.400 111.223,28.228 111.659,28.017 111.789 C 27.807 111.919,27.730 112.274,27.846 112.577 C 27.970 112.899,27.720 113.235,27.243 113.386 C 26.695 113.560,26.342 114.129,26.164 115.123 C 26.020 115.935,25.587 116.960,25.203 117.400 C 24.819 117.840,24.382 118.717,24.233 119.348 C 24.083 119.980,23.700 120.757,23.381 121.076 C 23.062 121.395,22.698 122.138,22.571 122.728 C 22.445 123.318,21.904 124.734,21.370 125.875 C 20.837 127.016,20.400 128.411,20.400 128.975 C 20.400 129.581,20.174 130.000,19.847 130.000 C 19.231 130.000,18.814 131.192,18.805 132.974 C 18.802 133.620,18.456 134.520,18.035 134.974 C 17.614 135.428,17.158 136.520,17.022 137.400 C 16.886 138.280,16.420 139.681,15.987 140.512 C 15.554 141.344,15.200 142.802,15.200 143.751 C 15.200 144.897,14.934 145.784,14.408 146.390 C 13.653 147.261,13.511 147.776,13.036 151.368 C 12.922 152.230,12.665 153.040,12.464 153.168 C 11.963 153.488,11.640 155.307,11.520 158.492 C 11.458 160.147,11.232 161.255,10.934 161.370 C 10.115 161.684,9.605 164.416,9.602 168.500 C 9.601 170.645,9.438 172.400,9.239 172.400 C 8.007 172.400,7.800 176.305,7.800 199.600 C 7.800 219.532,8.009 223.837,9.072 225.800 C 9.310 226.240,9.583 228.716,9.678 231.302 C 9.822 235.209,9.971 236.091,10.560 236.521 C 11.100 236.916,11.339 237.895,11.568 240.657 C 11.759 242.969,12.108 244.619,12.534 245.227 C 12.900 245.750,13.202 246.723,13.204 247.389 C 13.212 249.355,13.676 251.600,14.031 251.381 C 14.612 251.022,15.200 252.690,15.200 254.698 C 15.200 256.054,15.429 256.895,15.951 257.456 C 16.365 257.899,16.797 258.968,16.912 259.831 C 17.214 262.096,17.341 262.494,18.109 263.592 C 18.489 264.134,18.800 265.170,18.800 265.893 C 18.800 266.713,19.101 267.466,19.600 267.893 C 20.040 268.270,20.400 268.937,20.400 269.376 C 20.400 270.500,21.642 273.622,22.001 273.400 C 22.165 273.298,22.418 274.112,22.563 275.208 C 22.743 276.563,23.014 277.200,23.409 277.200 C 23.779 277.200,24.084 277.787,24.249 278.815 C 24.404 279.788,24.803 280.588,25.253 280.829 C 25.697 281.066,26.003 281.669,26.007 282.314 C 26.011 282.911,26.548 284.187,27.200 285.150 C 27.852 286.112,28.292 287.051,28.177 287.237 C 28.063 287.422,28.336 287.803,28.784 288.083 C 29.233 288.363,29.600 288.985,29.600 289.466 C 29.600 289.946,30.038 290.860,30.574 291.496 C 31.110 292.133,31.670 293.138,31.818 293.731 C 31.967 294.323,32.260 294.913,32.469 295.043 C 32.837 295.270,33.698 297.055,33.766 297.732 C 33.785 297.915,34.115 298.295,34.500 298.576 C 34.885 298.858,35.200 299.373,35.200 299.721 C 35.200 300.070,35.547 300.598,35.972 300.895 C 36.396 301.193,36.875 301.968,37.036 302.618 C 37.198 303.268,37.660 304.035,38.065 304.323 C 38.469 304.610,38.801 305.060,38.802 305.323 C 38.803 305.585,39.333 306.365,39.980 307.055 C 40.627 307.745,41.032 308.435,40.879 308.588 C 40.726 308.740,40.941 309.114,41.356 309.417 C 41.771 309.721,42.311 310.361,42.555 310.840 C 42.800 311.319,43.180 311.698,43.400 311.684 C 43.807 311.656,44.275 312.277,44.393 313.000 C 44.428 313.220,44.895 313.973,45.429 314.673 C 45.963 315.374,46.400 316.063,46.400 316.205 C 46.400 316.347,47.120 317.154,48.000 318.000 C 48.880 318.846,49.603 319.686,49.606 319.869 C 49.609 320.051,50.324 321.010,51.195 322.000 C 53.483 324.600,53.600 324.745,53.600 324.975 C 53.600 325.089,54.455 326.068,55.500 327.150 C 56.545 328.232,58.001 329.767,58.735 330.560 C 59.482 331.367,60.276 331.886,60.535 331.738 C 60.791 331.591,60.871 331.614,60.714 331.788 C 60.321 332.224,61.108 333.600,61.750 333.600 C 62.037 333.600,62.481 334.060,62.737 334.623 C 62.994 335.185,63.338 335.564,63.502 335.465 C 63.904 335.221,64.820 336.246,64.493 336.573 C 64.351 336.715,64.646 336.939,65.148 337.071 C 65.650 337.202,66.223 337.735,66.421 338.255 C 66.618 338.775,67.043 339.200,67.363 339.200 C 67.684 339.200,68.057 339.551,68.194 339.980 C 68.330 340.408,68.772 340.864,69.177 340.993 C 69.582 341.121,70.006 341.581,70.119 342.013 C 70.241 342.480,70.666 342.800,71.163 342.800 C 71.623 342.800,72.000 342.939,72.000 343.109 C 72.000 343.521,77.863 348.400,78.358 348.400 C 78.571 348.400,78.860 348.760,79.000 349.200 C 79.140 349.640,79.422 350.000,79.627 350.000 C 79.832 350.000,80.360 350.360,80.800 350.800 C 81.240 351.240,81.822 351.645,82.092 351.700 C 82.363 351.755,83.097 352.295,83.723 352.900 C 84.349 353.505,85.111 354.000,85.417 354.000 C 85.722 354.000,86.165 354.360,86.400 354.800 C 86.635 355.240,87.085 355.600,87.400 355.600 C 87.715 355.600,88.165 355.960,88.400 356.400 C 88.635 356.840,89.030 357.200,89.276 357.200 C 89.523 357.200,90.281 357.624,90.962 358.142 C 91.643 358.661,92.608 359.214,93.106 359.371 C 93.604 359.529,93.925 359.798,93.818 359.970 C 93.622 360.289,95.287 361.200,96.066 361.200 C 96.302 361.200,97.136 361.764,97.921 362.453 C 98.706 363.142,100.041 364.015,100.887 364.395 C 101.734 364.774,102.646 365.377,102.913 365.734 C 103.346 366.313,104.408 366.682,105.900 366.770 C 106.175 366.787,106.400 367.070,106.400 367.400 C 106.400 367.730,106.625 368.014,106.900 368.031 C 108.825 368.148,110.000 368.656,110.000 369.369 C 110.000 369.732,110.547 370.066,111.406 370.227 C 112.179 370.372,112.958 370.753,113.137 371.073 C 113.316 371.393,113.899 371.723,114.431 371.805 C 116.233 372.083,116.776 372.242,117.088 372.586 C 117.261 372.776,117.132 372.776,116.800 372.587 C 116.286 372.295,116.277 372.342,116.740 372.913 C 117.037 373.279,117.937 373.696,118.740 373.839 C 119.543 373.982,120.560 374.414,121.000 374.800 C 121.440 375.186,122.475 375.622,123.300 375.769 C 124.125 375.916,124.800 376.186,124.800 376.370 C 124.800 376.751,126.658 377.519,127.700 377.567 C 129.277 377.641,129.600 377.757,129.600 378.251 C 129.600 378.536,130.365 378.962,131.300 379.197 C 132.235 379.432,133.810 379.968,134.800 380.386 C 135.790 380.805,137.360 381.232,138.289 381.334 C 139.218 381.437,140.268 381.810,140.621 382.164 C 140.975 382.518,141.418 382.713,141.605 382.597 C 141.792 382.482,142.058 382.570,142.196 382.793 C 142.334 383.017,143.112 383.201,143.924 383.203 C 144.736 383.204,145.940 383.563,146.600 384.000 C 147.308 384.469,148.477 384.796,149.452 384.797 C 150.360 384.799,152.070 385.230,153.252 385.755 C 154.697 386.397,156.250 386.732,157.995 386.779 C 159.688 386.825,160.828 387.063,161.271 387.464 C 161.667 387.822,162.925 388.140,164.276 388.222 C 170.392 388.597,172.167 388.875,172.647 389.532 C 173.420 390.589,223.697 390.553,225.313 389.494 C 226.097 388.980,227.698 388.699,231.186 388.464 C 234.591 388.235,236.187 387.960,236.691 387.517 C 237.164 387.101,238.495 386.834,240.695 386.713 C 243.000 386.587,244.210 386.334,244.721 385.871 C 245.474 385.190,246.363 384.971,249.777 384.624 C 250.865 384.514,251.889 384.184,252.053 383.892 C 252.217 383.599,253.127 383.319,254.075 383.269 C 255.024 383.220,256.672 382.734,257.737 382.190 C 258.802 381.645,260.218 381.200,260.882 381.200 C 261.547 381.200,262.746 380.865,263.546 380.456 C 265.964 379.218,269.295 377.942,271.200 377.522 C 272.190 377.304,273.180 376.906,273.400 376.638 C 273.860 376.077,275.080 375.524,276.107 375.411 C 276.497 375.368,277.037 375.045,277.307 374.694 C 277.578 374.342,278.381 373.969,279.091 373.864 C 279.801 373.759,280.844 373.309,281.409 372.864 C 281.975 372.419,282.968 371.939,283.616 371.796 C 284.265 371.654,284.947 371.265,285.134 370.933 C 285.320 370.600,285.591 370.344,285.736 370.364 C 286.760 370.503,287.314 370.275,288.075 369.400 C 288.610 368.784,289.369 368.400,290.049 368.400 C 290.675 368.400,291.382 368.076,291.677 367.654 C 291.965 367.243,292.830 366.769,293.600 366.600 C 294.370 366.431,295.235 365.957,295.523 365.546 C 295.810 365.136,296.242 364.800,296.481 364.800 C 297.269 364.800,301.220 361.956,300.978 361.564 C 300.847 361.353,300.889 361.206,301.070 361.237 C 302.146 361.424,303.299 361.101,303.979 360.421 C 304.407 359.993,305.307 359.358,305.979 359.011 C 306.650 358.664,307.200 358.224,307.200 358.033 C 307.200 357.843,307.655 357.572,308.212 357.433 C 308.768 357.293,309.606 356.740,310.072 356.203 C 310.539 355.666,311.060 355.314,311.231 355.419 C 311.402 355.525,311.657 355.249,311.798 354.807 C 311.938 354.364,312.474 353.896,312.989 353.767 C 313.503 353.638,314.333 353.098,314.832 352.566 C 315.331 352.035,315.918 351.600,316.136 351.600 C 316.354 351.600,316.873 351.285,317.289 350.900 C 317.705 350.515,318.440 349.834,318.922 349.387 C 319.405 348.940,320.301 348.257,320.913 347.869 C 321.539 347.473,321.905 346.971,321.751 346.721 C 321.597 346.472,321.657 346.388,321.887 346.530 C 322.371 346.829,324.000 345.518,324.000 344.829 C 324.000 344.567,324.184 344.467,324.410 344.606 C 324.635 344.746,325.306 344.306,325.899 343.630 C 326.493 342.953,327.196 342.400,327.462 342.400 C 327.728 342.400,328.060 342.040,328.200 341.600 C 328.340 341.160,328.802 340.800,329.227 340.800 C 329.668 340.800,330.000 340.526,330.000 340.163 C 330.000 339.812,330.354 339.433,330.787 339.319 C 331.219 339.206,331.679 338.782,331.807 338.377 C 331.936 337.972,332.392 337.530,332.820 337.394 C 333.249 337.257,333.600 336.996,333.600 336.813 C 333.600 336.368,336.385 333.600,336.832 333.600 C 337.026 333.600,337.296 333.156,337.432 332.613 C 337.569 332.071,337.797 331.642,337.940 331.661 C 338.761 331.768,339.200 331.525,339.200 330.963 C 339.200 330.612,339.560 330.231,340.000 330.116 C 340.440 330.001,340.800 329.580,340.800 329.180 C 340.800 328.781,341.160 328.340,341.600 328.200 C 342.040 328.060,342.400 327.760,342.400 327.534 C 342.400 327.307,342.954 326.604,343.630 325.972 C 344.307 325.339,344.747 324.637,344.607 324.411 C 344.467 324.185,344.567 324.000,344.830 324.000 C 345.502 324.000,347.204 321.930,346.915 321.463 C 346.780 321.244,346.886 321.206,347.159 321.375 C 347.473 321.569,347.805 321.240,348.109 320.437 C 348.365 319.756,348.800 319.200,349.074 319.200 C 349.348 319.200,349.784 318.795,350.044 318.300 C 350.304 317.805,350.761 317.256,351.058 317.080 C 351.356 316.904,351.600 316.521,351.600 316.229 C 351.600 315.937,351.868 315.476,352.196 315.204 C 352.523 314.932,352.675 314.522,352.534 314.293 C 352.384 314.051,352.470 313.996,352.739 314.162 C 353.020 314.336,353.352 314.053,353.584 313.442 C 353.795 312.888,354.697 311.683,355.589 310.763 C 356.482 309.843,357.319 308.666,357.449 308.146 C 357.580 307.625,357.843 307.200,358.033 307.200 C 358.224 307.200,358.678 306.615,359.044 305.900 C 359.409 305.185,359.938 304.465,360.219 304.300 C 360.500 304.135,360.852 303.279,361.000 302.398 C 361.149 301.517,361.428 300.894,361.621 301.013 C 361.985 301.238,364.237 298.028,364.086 297.500 C 364.039 297.335,364.180 297.200,364.400 297.200 C 364.620 297.200,364.800 296.940,364.800 296.623 C 364.800 296.305,365.136 295.810,365.546 295.523 C 365.957 295.235,366.431 294.370,366.600 293.600 C 366.769 292.830,367.243 291.965,367.654 291.677 C 368.076 291.382,368.400 290.675,368.400 290.049 C 368.400 289.369,368.784 288.610,369.400 288.075 C 369.950 287.597,370.400 286.934,370.400 286.603 C 370.400 285.528,370.449 285.404,370.997 285.098 C 371.294 284.931,371.654 284.265,371.796 283.616 C 371.939 282.968,372.419 281.975,372.864 281.409 C 373.309 280.844,373.759 279.801,373.864 279.091 C 373.969 278.381,374.342 277.578,374.694 277.307 C 375.045 277.037,375.376 276.497,375.430 276.107 C 375.624 274.691,376.091 273.651,376.623 273.446 C 376.925 273.331,377.286 272.347,377.432 271.242 C 377.578 270.145,378.000 268.921,378.371 268.523 C 378.742 268.126,379.066 267.662,379.092 267.493 C 379.337 265.903,379.817 264.463,380.445 263.433 C 380.859 262.755,381.198 261.612,381.199 260.893 C 381.199 260.174,381.635 258.734,382.168 257.693 C 382.700 256.652,383.229 254.900,383.343 253.800 C 383.457 252.700,383.561 251.744,383.575 251.676 C 383.589 251.608,383.760 251.651,383.955 251.772 C 384.410 252.054,384.629 251.138,384.758 248.400 C 384.832 246.847,385.101 245.944,385.674 245.329 C 386.318 244.637,386.528 243.733,386.693 240.929 C 386.833 238.561,387.105 237.167,387.521 236.691 C 387.959 236.189,388.236 234.574,388.464 231.186 C 388.699 227.698,388.980 226.097,389.494 225.313 C 390.586 223.645,390.585 173.417,389.493 172.618 C 388.928 172.205,388.742 171.303,388.572 168.150 C 388.356 164.145,387.748 161.200,387.136 161.200 C 386.951 161.200,386.799 160.075,386.798 158.700 C 386.795 155.745,386.170 153.200,385.447 153.200 C 385.090 153.200,384.906 152.432,384.850 150.700 C 384.758 147.851,384.501 146.775,383.776 146.202 C 383.496 145.981,383.182 144.990,383.076 144.000 C 382.805 141.447,382.612 140.778,382.046 140.428 C 381.771 140.259,381.414 139.148,381.252 137.960 C 381.089 136.772,380.626 135.299,380.223 134.686 C 379.819 134.073,379.447 133.173,379.396 132.686 C 379.344 132.199,379.279 131.582,379.251 131.316 C 379.223 131.049,378.865 130.509,378.455 130.116 C 378.045 129.722,377.610 128.617,377.488 127.661 C 377.366 126.704,376.928 125.534,376.516 125.061 C 376.104 124.587,375.719 123.660,375.660 123.000 C 375.600 122.340,375.203 121.501,374.776 121.136 C 374.349 120.771,374.000 120.013,374.000 119.451 C 374.000 118.890,373.650 118.105,373.223 117.707 C 372.795 117.308,372.267 116.190,372.050 115.222 C 371.832 114.254,371.392 113.316,371.073 113.137 C 370.753 112.958,370.376 112.199,370.236 111.450 C 370.069 110.562,369.705 110.016,369.190 109.882 C 368.668 109.745,368.400 109.334,368.400 108.670 C 368.400 107.284,368.011 106.400,367.402 106.400 C 367.120 106.400,366.771 105.770,366.626 105.000 C 366.482 104.230,365.922 103.158,365.382 102.618 C 364.842 102.078,364.400 101.374,364.400 101.054 C 364.400 100.734,363.707 99.595,362.860 98.523 C 362.013 97.452,361.099 95.906,360.829 95.088 C 360.559 94.269,360.082 93.600,359.769 93.600 C 359.456 93.600,359.200 93.252,359.200 92.827 C 359.200 92.402,358.840 91.940,358.400 91.800 C 357.960 91.660,357.600 91.204,357.600 90.787 C 357.600 90.369,357.041 89.392,356.359 88.614 C 355.676 87.836,355.252 87.200,355.417 87.200 C 355.582 87.200,355.241 86.759,354.658 86.219 C 354.076 85.680,353.600 85.059,353.600 84.840 C 353.600 84.621,353.150 83.956,352.600 83.362 C 352.050 82.769,351.600 82.039,351.600 81.742 C 351.600 81.444,351.416 81.200,351.191 81.200 C 350.967 81.200,350.579 80.753,350.331 80.208 C 350.082 79.662,349.546 79.110,349.139 78.981 C 348.733 78.852,348.400 78.585,348.400 78.387 C 348.400 78.190,348.027 77.617,347.572 77.114 C 345.611 74.948,342.800 71.247,342.800 70.829 C 342.800 70.579,342.485 70.257,342.100 70.112 C 341.416 69.855,339.200 67.715,339.200 67.312 C 339.200 66.992,336.281 64.400,335.922 64.400 C 335.745 64.400,335.600 64.214,335.600 63.987 C 335.600 63.464,332.958 60.800,332.440 60.800 C 332.228 60.800,331.943 60.449,331.806 60.020 C 331.670 59.592,331.217 59.133,330.800 59.000 C 330.383 58.867,329.929 58.406,329.792 57.974 C 329.655 57.542,329.383 57.287,329.189 57.407 C 328.994 57.527,328.537 57.170,328.172 56.613 C 327.807 56.056,327.259 55.600,326.954 55.600 C 326.649 55.600,326.400 55.407,326.400 55.171 C 326.400 54.617,325.670 53.939,324.323 53.245 C 323.731 52.939,322.500 51.994,321.588 51.143 C 320.676 50.292,319.765 49.698,319.565 49.822 C 319.364 49.946,319.200 49.677,319.200 49.224 C 319.200 48.487,318.790 48.212,317.900 48.353 C 317.735 48.379,317.600 48.226,317.600 48.013 C 317.600 47.480,313.374 44.400,312.644 44.400 C 312.319 44.400,311.940 44.040,311.800 43.600 C 311.660 43.160,311.391 42.800,311.202 42.800 C 311.012 42.800,310.610 42.553,310.309 42.252 C 310.008 41.950,309.140 41.387,308.380 41.000 C 306.999 40.296,306.685 40.062,304.782 38.328 C 304.222 37.818,303.592 37.390,303.382 37.377 C 302.489 37.324,300.891 36.413,300.667 35.831 C 300.534 35.484,300.116 35.200,299.738 35.200 C 299.361 35.200,298.663 34.835,298.188 34.389 C 297.714 33.943,296.950 33.506,296.491 33.418 C 296.032 33.329,295.284 32.884,294.828 32.428 C 294.373 31.973,293.650 31.600,293.223 31.600 C 292.795 31.600,292.194 31.241,291.887 30.803 C 291.580 30.364,290.715 29.885,289.964 29.737 C 289.214 29.589,288.363 29.135,288.073 28.727 C 287.783 28.320,287.399 28.077,287.220 28.188 C 287.041 28.298,286.203 27.919,285.357 27.345 C 284.512 26.771,283.275 26.221,282.610 26.121 C 281.944 26.022,281.130 25.617,280.800 25.222 C 280.470 24.826,279.589 24.389,278.843 24.250 C 278.097 24.111,277.280 23.716,277.029 23.372 C 276.778 23.028,275.813 22.645,274.886 22.521 C 273.959 22.396,273.200 22.145,273.200 21.961 C 273.200 21.431,271.919 20.886,270.002 20.600 C 268.936 20.441,268.016 20.030,267.693 19.568 C 267.351 19.081,266.683 18.800,265.866 18.800 C 265.158 18.800,264.134 18.489,263.592 18.109 C 262.531 17.366,262.155 17.241,260.000 16.918 C 259.230 16.803,258.291 16.436,257.913 16.104 C 257.535 15.771,256.051 15.378,254.615 15.229 C 252.823 15.044,251.844 14.740,251.493 14.260 C 251.151 13.791,250.195 13.481,248.591 13.318 C 247.276 13.184,245.570 12.757,244.800 12.369 C 244.030 11.982,242.606 11.661,241.635 11.657 C 238.895 11.644,236.834 11.189,236.456 10.515 C 236.187 10.034,235.071 9.855,231.356 9.699 C 228.740 9.588,226.240 9.304,225.800 9.068 C 224.960 8.617,224.555 8.503,222.600 8.168 C 221.002 7.893,182.247 7.486,181.993 7.741 M203.827 77.549 C 212.295 81.555,215.468 94.033,211.467 107.600 C 210.063 112.364,207.138 118.880,204.684 122.713 C 200.782 128.807,198.212 132.729,196.501 135.200 C 191.382 142.594,176.810 158.508,169.400 164.795 C 157.063 175.264,150.156 178.276,145.591 175.180 C 137.738 169.855,141.879 159.429,158.571 142.496 C 168.081 132.849,170.052 132.061,168.561 138.500 C 167.210 144.337,182.319 128.200,190.800 114.747 C 191.790 113.177,192.987 111.305,193.460 110.587 C 193.933 109.870,194.450 108.859,194.610 108.341 C 194.770 107.824,195.533 106.320,196.306 105.000 C 200.332 98.127,200.457 89.867,196.558 88.384 C 193.328 87.156,186.023 89.906,179.429 94.833 C 178.533 95.502,176.813 96.777,175.606 97.666 C 174.399 98.554,172.509 100.049,171.406 100.988 C 170.303 101.927,168.050 103.833,166.400 105.225 C 161.560 109.308,152.297 118.750,147.197 124.800 C 145.991 126.230,144.914 127.490,144.802 127.600 C 144.370 128.026,142.144 130.701,141.000 132.169 C 140.340 133.017,138.630 135.187,137.200 136.992 C 132.744 142.617,125.600 153.062,125.600 153.951 C 125.600 154.144,125.346 154.513,125.034 154.771 C 124.723 155.030,124.082 155.997,123.610 156.920 C 123.138 157.844,122.321 159.320,121.795 160.200 C 120.154 162.944,114.865 173.801,114.569 175.030 C 114.414 175.674,114.036 176.700,113.727 177.312 C 111.833 181.071,109.293 194.754,109.775 198.600 C 111.000 208.371,112.621 212.656,116.456 216.264 C 118.337 218.033,119.957 218.979,123.986 220.656 C 126.507 221.706,135.847 221.720,139.600 220.679 C 143.185 219.685,149.714 217.535,150.200 217.189 C 150.420 217.032,151.295 216.680,152.145 216.406 C 152.995 216.132,154.925 215.209,156.433 214.354 C 157.941 213.499,159.253 212.800,159.347 212.800 C 159.575 212.800,164.588 209.765,166.600 208.408 C 167.480 207.815,169.008 206.805,169.994 206.165 C 178.457 200.673,192.255 188.683,195.106 184.343 C 198.768 178.768,198.501 178.997,202.948 177.643 C 205.177 176.965,208.350 175.975,210.000 175.443 C 215.171 173.775,221.626 172.046,226.600 170.996 C 227.920 170.717,230.073 170.199,231.384 169.845 C 232.695 169.490,234.495 169.194,235.384 169.186 C 236.273 169.178,238.440 168.904,240.200 168.576 C 247.625 167.194,267.486 166.582,273.600 167.547 C 290.290 170.180,298.250 174.155,304.970 183.215 C 306.188 184.857,307.188 186.421,307.192 186.691 C 307.196 186.961,307.626 188.131,308.147 189.291 C 313.683 201.619,311.620 222.003,303.580 234.400 C 302.938 235.390,302.287 236.470,302.134 236.800 C 299.633 242.175,287.655 253.485,279.673 258.008 C 275.940 260.123,273.576 261.347,272.000 261.980 C 271.010 262.377,268.850 263.244,267.200 263.906 C 262.887 265.635,260.624 266.366,257.000 267.198 C 255.240 267.603,253.350 268.106,252.800 268.317 C 252.250 268.528,250.810 268.826,249.600 268.978 C 248.390 269.131,246.050 269.531,244.400 269.867 C 240.180 270.726,228.232 271.151,220.244 270.725 C 212.703 270.323,212.355 270.423,210.917 273.400 C 210.599 274.060,209.857 275.456,209.269 276.503 C 205.147 283.838,204.241 286.004,204.728 287.351 C 205.926 290.664,205.220 292.674,200.289 299.986 C 198.578 302.524,196.391 305.778,195.429 307.217 C 189.014 316.818,182.031 313.720,184.993 302.587 C 185.573 300.408,186.193 298.439,186.372 298.212 C 186.550 297.986,186.922 297.080,187.199 296.200 C 187.477 295.320,187.942 294.150,188.233 293.600 C 188.525 293.050,189.304 291.340,189.964 289.800 C 191.147 287.041,192.013 285.320,195.001 279.800 C 195.835 278.260,197.554 274.995,198.823 272.544 L 201.129 268.088 199.846 266.844 C 199.140 266.160,198.319 265.600,198.023 265.600 C 195.209 265.600,191.509 258.379,192.339 254.508 C 193.500 249.095,202.039 242.239,210.411 240.000 C 211.395 239.737,212.393 239.364,212.630 239.170 C 212.866 238.977,214.396 238.542,216.030 238.205 C 219.594 237.468,219.171 237.912,225.743 228.000 C 230.324 221.090,231.257 219.687,232.800 217.386 C 233.423 216.456,237.284 210.665,238.629 208.640 C 239.053 208.003,239.670 207.084,240.000 206.600 C 240.330 206.116,241.355 204.567,242.277 203.160 C 243.200 201.752,244.241 200.240,244.592 199.800 C 245.535 198.614,247.200 196.003,247.200 195.708 C 247.200 195.567,247.579 195.048,248.042 194.555 C 248.505 194.062,248.764 193.466,248.618 193.230 C 248.201 192.555,239.390 192.690,236.609 193.414 C 235.311 193.752,232.889 194.211,231.225 194.435 C 229.561 194.658,227.164 195.191,225.898 195.620 C 224.633 196.049,223.283 196.401,222.898 196.402 C 221.640 196.407,211.233 199.619,205.400 201.804 C 203.860 202.380,201.684 203.181,200.565 203.582 C 199.445 203.984,198.185 204.511,197.765 204.753 C 197.344 204.996,196.235 205.465,195.300 205.797 C 194.365 206.129,192.835 206.672,191.900 207.005 C 190.965 207.338,189.750 207.861,189.200 208.166 C 185.756 210.076,183.200 209.744,183.200 207.386 C 183.200 205.843,182.777 205.658,181.629 206.700 C 181.204 207.085,180.604 207.604,180.295 207.854 C 179.986 208.103,177.498 210.322,174.767 212.785 C 160.087 226.022,142.235 236.490,131.400 238.217 C 130.520 238.357,128.412 238.740,126.716 239.069 C 120.578 240.257,111.249 239.331,105.214 236.933 C 87.864 230.040,81.463 207.696,89.649 182.600 C 90.079 181.280,90.604 179.530,90.815 178.712 C 91.216 177.155,91.914 175.513,94.429 170.200 C 95.262 168.440,96.228 166.370,96.575 165.600 C 96.922 164.830,97.609 163.527,98.103 162.704 C 98.596 161.880,100.129 159.270,101.509 156.904 C 102.889 154.537,104.643 151.790,105.407 150.800 C 106.171 149.810,106.982 148.640,107.209 148.200 C 107.692 147.261,108.378 146.319,112.400 141.071 C 114.050 138.918,116.030 136.289,116.800 135.229 C 119.576 131.407,129.246 120.386,135.382 114.052 C 145.961 103.131,163.115 89.321,171.281 85.152 C 176.522 82.475,180.868 80.426,182.200 80.004 C 183.080 79.724,183.980 79.354,184.201 79.181 C 184.421 79.008,186.041 78.485,187.801 78.018 C 189.560 77.551,191.540 77.015,192.200 76.826 C 195.220 75.961,201.265 76.337,203.827 77.549 M258.000 192.268 C 256.467 192.588,256.000 193.166,255.997 194.749 C 255.991 197.998,253.647 203.242,248.901 210.623 C 248.626 211.051,247.569 212.791,246.551 214.492 C 245.534 216.193,244.454 217.790,244.151 218.041 C 243.848 218.292,243.600 218.701,243.599 218.949 C 243.599 219.197,242.912 220.390,242.073 221.600 C 241.234 222.810,239.879 224.998,239.061 226.462 C 238.243 227.926,237.310 229.343,236.987 229.611 C 236.664 229.879,236.396 230.301,236.391 230.549 C 236.386 230.797,236.030 231.450,235.600 232.000 C 234.710 233.137,234.557 234.381,235.300 234.439 C 236.685 234.546,243.205 234.345,244.636 234.151 C 246.563 233.889,247.993 234.844,247.166 235.841 C 246.542 236.593,242.367 237.840,239.291 238.193 C 237.155 238.438,230.078 240.149,229.798 240.488 C 229.747 240.550,228.946 241.994,228.018 243.698 C 227.089 245.402,226.166 246.898,225.965 247.022 C 225.764 247.146,225.600 247.590,225.600 248.010 C 225.600 251.354,252.905 250.170,263.000 246.387 C 264.100 245.975,265.540 245.511,266.200 245.357 C 266.860 245.203,268.027 244.745,268.794 244.339 C 269.561 243.932,270.408 243.600,270.677 243.600 C 271.217 243.600,278.649 239.807,279.600 239.046 C 279.930 238.782,280.724 238.303,281.365 237.983 C 282.946 237.192,293.166 227.041,294.638 224.800 C 300.341 216.114,301.920 207.640,298.874 202.069 C 296.145 197.078,288.102 193.703,276.821 192.816 C 270.749 192.338,259.267 192.004,258.000 192.268 " stroke="none" fill="#67b0d1" fill-rule="evenodd"></path><path id="path4" d="M176.100 7.876 C 176.485 7.976,177.115 7.976,177.500 7.876 C 177.885 7.775,177.570 7.693,176.800 7.693 C 176.030 7.693,175.715 7.775,176.100 7.876 M167.100 9.482 C 167.595 9.578,168.405 9.578,168.900 9.482 C 169.395 9.387,168.990 9.309,168.000 9.309 C 167.010 9.309,166.605 9.387,167.100 9.482 M229.100 9.482 C 229.595 9.578,230.405 9.578,230.900 9.482 C 231.395 9.387,230.990 9.309,230.000 9.309 C 229.010 9.309,228.605 9.387,229.100 9.482 M124.983 21.228 C 124.837 21.463,124.332 21.812,123.859 22.003 C 123.273 22.239,123.203 22.357,123.638 22.375 C 123.989 22.389,124.602 22.040,125.000 21.600 C 125.398 21.160,125.617 20.800,125.486 20.800 C 125.354 20.800,125.128 20.993,124.983 21.228 M322.813 51.900 C 322.819 52.065,323.314 52.546,323.913 52.968 L 325.000 53.736 324.030 52.668 C 323.011 51.546,322.792 51.407,322.813 51.900 M22.032 123.569 C 22.014 123.881,21.692 124.511,21.315 124.969 C 20.669 125.753,20.683 125.751,21.562 124.942 C 22.075 124.470,22.397 123.840,22.279 123.542 C 22.104 123.103,22.057 123.108,22.032 123.569 M386.909 159.200 C 386.909 160.190,386.987 160.595,387.082 160.100 C 387.178 159.605,387.178 158.795,387.082 158.300 C 386.987 157.805,386.909 158.210,386.909 159.200 M9.309 168.000 C 9.309 168.990,9.387 169.395,9.482 168.900 C 9.578 168.405,9.578 167.595,9.482 167.100 C 9.387 166.605,9.309 167.010,9.309 168.000 M7.693 176.800 C 7.693 177.570,7.775 177.885,7.876 177.500 C 7.976 177.115,7.976 176.485,7.876 176.100 C 7.775 175.715,7.693 176.030,7.693 176.800 M390.544 182.800 C 390.544 184.890,390.612 185.745,390.694 184.700 C 390.776 183.655,390.776 181.945,390.694 180.900 C 390.612 179.855,390.544 180.710,390.544 182.800 M390.544 215.200 C 390.544 217.290,390.612 218.145,390.694 217.100 C 390.776 216.055,390.776 214.345,390.694 213.300 C 390.612 212.255,390.544 213.110,390.544 215.200 M9.314 230.200 C 9.317 231.300,9.395 231.703,9.487 231.095 C 9.579 230.486,9.577 229.586,9.482 229.095 C 9.387 228.603,9.311 229.100,9.314 230.200 M386.909 238.800 C 386.909 239.790,386.987 240.195,387.082 239.700 C 387.178 239.205,387.178 238.395,387.082 237.900 C 386.987 237.405,386.909 237.810,386.909 238.800 M15.471 257.479 C 16.064 259.111,16.800 259.878,16.800 258.865 C 16.800 258.359,16.622 258.063,16.400 258.200 C 16.180 258.336,16.000 258.177,16.000 257.847 C 16.000 257.517,15.822 257.137,15.605 257.003 C 15.368 256.857,15.315 257.049,15.471 257.479 M71.549 343.478 C 71.799 343.960,72.195 344.473,72.429 344.618 C 73.225 345.110,73.045 344.602,72.068 343.600 C 71.185 342.694,71.136 342.683,71.549 343.478 M267.800 378.800 C 267.140 379.237,266.805 379.596,267.056 379.597 C 267.493 379.600,269.611 378.038,269.200 378.016 C 269.090 378.010,268.460 378.363,267.800 378.800 M158.305 387.083 C 158.802 387.179,159.522 387.175,159.905 387.075 C 160.287 386.975,159.880 386.896,159.000 386.901 C 158.120 386.905,157.807 386.987,158.305 387.083 M238.305 387.083 C 238.802 387.179,239.522 387.175,239.905 387.075 C 240.287 386.975,239.880 386.896,239.000 386.901 C 238.120 386.905,237.807 386.987,238.305 387.083 M180.900 390.694 C 181.945 390.776,183.655 390.776,184.700 390.694 C 185.745 390.612,184.890 390.544,182.800 390.544 C 180.710 390.544,179.855 390.612,180.900 390.694 M213.300 390.694 C 214.345 390.776,216.055 390.776,217.100 390.694 C 218.145 390.612,217.290 390.544,215.200 390.544 C 213.110 390.544,212.255 390.612,213.300 390.694 " stroke="none" fill="#00ffff" fill-rule="evenodd"></path></g></svg>